<?xml version="1.0" encoding="UTF-8" standalone="no"?>
<!-- Created with Inkscape (http://www.inkscape.org/) -->

<svg
   width="3834.373"
   height="713.48083"
   viewBox="0 0 3834.373 713.48083"
   version="1.1"
   id="svg5"
   sodipodi:docname="Alcarodian Dungeons.svg"
   inkscape:version="1.1.2 (0a00cf5339, 2022-02-04)"
   xmlns:inkscape="http://www.inkscape.org/namespaces/inkscape"
   xmlns:sodipodi="http://sodipodi.sourceforge.net/DTD/sodipodi-0.dtd"
   xmlns="http://www.w3.org/2000/svg"
   xmlns:svg="http://www.w3.org/2000/svg">
  <sodipodi:namedview
     id="namedview7"
     pagecolor="#ffffff"
     bordercolor="#666666"
     borderopacity="1.0"
     inkscape:pageshadow="2"
     inkscape:pageopacity="0.0"
     inkscape:pagecheckerboard="0"
     inkscape:document-units="px"
     showgrid="false"
     inkscape:zoom="1"
     inkscape:cx="2962"
     inkscape:cy="395"
     inkscape:window-width="1920"
     inkscape:window-height="1011"
     inkscape:window-x="1920"
     inkscape:window-y="32"
     inkscape:window-maximized="1"
     inkscape:current-layer="layer1"
     showguides="true"
     inkscape:guide-bbox="true">
    <sodipodi:guide
       position="633.94086,282.48452"
       orientation="0,-1"
       id="guide52592" />
  </sodipodi:namedview>
  <defs
     id="defs2">
    <filter
       style="color-interpolation-filters:sRGB"
       id="filter47526"
       inkscape:label="filter0">
      <feBlend
         mode="normal"
         id="feBlend47528"
         in2="SourceGraphic" />
    </filter>
  </defs>
  <g
     inkscape:label="Layer 1"
     inkscape:groupmode="layer"
     id="layer1"
     transform="translate(-25.520977,-723.25959)">
    <g
       aria-label="ALCARODIAN
DUNGEONS"
       id="text13720"
       style="font-size:426.667px;line-height:1.25;letter-spacing:30px;word-spacing:0px">
      <path
         d="M 623.02002,925.34308 577.60331,819.92633 531.97828,925.34308 Z m 90.00006,61.45838 30.20836,7.91667 v 11.87497 H 627.81169 v -11.87497 l 22.70835,-6.04167 -18.54168,-42.9167 H 523.22827 l -18.54168,42.9167 22.70835,6.04167 v 11.87497 h -85.62506 v -11.87497 l 30.00002,-7.91667 113.54175,-263.1252 h 10.41668 z"
         style="font-family:'MOG rhythm';-inkscape-font-specification:'MOG rhythm';text-align:center;text-anchor:middle"
         id="path58334" />
      <path
         d="M 999.68695,1006.5931 H 788.02012 v -11.87497 l 29.37503,-7.91667 V 748.46794 l -29.37503,-7.91667 v -11.87501 h 121.04176 v 11.87501 l -29.37502,7.91667 v 235.00018 h 91.4584 l 11.66668,-53.95837 h 16.87501 z"
         style="font-family:'MOG rhythm';-inkscape-font-specification:'MOG rhythm';text-align:center;text-anchor:middle"
         id="path58336" />
      <path
         d="m 1185.3121,1011.1765 q -72.2917,0 -109.1668,-41.66672 -34.5833,-38.75003 -34.5833,-102.29175 0,-63.54171 33.75,-102.29174 36.25,-41.6667 108.5417,-41.6667 23.1251,0 46.8751,8.75001 23.75,8.75 34.5833,19.58335 l 7.7084,-28.33336 h 16.6667 v 91.25007 h -16.6667 q -10,-37.08336 -34.7917,-54.79171 -20,-13.95834 -50.2084,-13.95834 -84.1667,0 -84.1667,121.45842 0,36.87503 9.1667,63.75005 9.1666,26.87502 28.75,41.25003 19.7917,14.16668 52.5,14.16668 26.4584,0 49.3751,-9.79167 23.125,-9.79168 48.125,-33.12503 v 30.83336 q -48.125,36.87505 -106.4584,36.87505 z"
         style="font-family:'MOG rhythm';-inkscape-font-specification:'MOG rhythm';text-align:center;text-anchor:middle"
         id="path58338" />
      <path
         d="m 1501.1456,925.34308 -45.4167,-105.41675 -45.625,105.41675 z m 90.0001,61.45838 30.2084,7.91667 v 11.87497 h -115.4168 v -11.87497 l 22.7083,-6.04167 -18.5416,-42.9167 h -108.7501 l -18.5417,42.9167 22.7084,6.04167 v 11.87497 h -85.6251 v -11.87497 l 30,-7.91667 113.5418,-263.1252 h 10.4166 z"
         style="font-family:'MOG rhythm';-inkscape-font-specification:'MOG rhythm';text-align:center;text-anchor:middle"
         id="path58340" />
      <path
         d="m 1762.8125,867.84303 q 27.7084,-0.20833 43.5417,-14.37501 15.8334,-14.37501 15.8334,-45.00003 0,-20.41668 -7.5,-33.54169 -7.2917,-13.12501 -20.625,-19.37502 -13.3334,-6.25 -32.0834,-6.25 h -7.0833 v 118.54175 z m 162.7085,138.75007 h -81.8751 l -88.75,-117.08338 v 97.29174 l 29.375,7.91667 v 11.87497 h -118.1251 v -11.87497 l 29.375,-7.91667 V 748.46794 l -29.375,-7.91667 v -11.87501 h 107.7084 q 45.4167,0 76.2501,20.00002 34.5833,22.29168 34.5833,59.79171 0,19.58335 -9.375,34.58336 -9.1667,14.79168 -25.625,25.00002 -16.25,10.20834 -33.75,14.37501 l 79.1667,104.16674 30.4167,8.12501 z"
         style="font-family:'MOG rhythm';-inkscape-font-specification:'MOG rhythm';text-align:center;text-anchor:middle"
         id="path58342" />
      <path
         d="m 2080.9377,991.80146 q 17.0833,0 29.375,-7.5 12.2917,-7.50001 20.8333,-20.62502 8.5417,-13.12501 13.3334,-29.58336 5,-16.45834 7.0833,-33.95835 2.0834,-17.50002 2.0834,-33.12503 0,-15.62501 -2.0834,-32.91669 -1.875,-17.50002 -6.875,-33.95836 -5,-16.45835 -13.5417,-29.37502 -8.5416,-13.12501 -20.8333,-20.62502 -12.2917,-7.50001 -29.375,-7.50001 -17.0834,0 -29.375,7.50001 -12.2917,7.50001 -20.8334,20.62502 -8.3333,12.91667 -13.3333,29.37502 -5,16.45834 -7.0834,33.95836 -2.0833,17.29168 -2.0833,32.91669 0,15.62501 2.0833,33.12503 2.0834,17.50001 7.0834,33.95835 5,16.45835 13.5416,29.58336 8.5417,13.12501 20.6251,20.62502 12.2916,7.5 29.375,7.5 z m 0,19.37504 q -33.75,0 -59.3751,-11.25003 -25.625,-11.25001 -42.5,-31.04169 -16.6667,-19.79168 -25,-45.83337 -8.3334,-26.04169 -8.3334,-56.04171 0,-30.00002 8.125,-56.04171 8.3334,-26.04169 25.2084,-45.62503 16.875,-19.79169 42.2917,-30.83336 25.625,-11.25001 59.5834,-11.25001 33.9583,0 59.5834,11.25001 25.625,11.04167 42.2917,30.83336 16.875,19.58334 25.2083,45.62503 8.3333,26.04169 8.3333,56.04171 0,30.00002 -8.3333,56.04171 -8.3333,26.04169 -25.2083,45.83337 -16.8751,19.79168 -42.5001,31.04169 -25.4167,11.25003 -59.375,11.25003 z"
         style="font-family:'MOG rhythm';-inkscape-font-specification:'MOG rhythm';text-align:center;text-anchor:middle"
         id="path58344" />
      <path
         d="m 2263.0212,1006.5931 v -11.87497 l 29.375,-7.91667 V 748.46794 l -29.375,-7.91667 v -11.87501 h 127.0834 q 49.7917,0 86.8751,18.12501 37.2917,17.91669 57.7083,49.16671 20.4167,31.25002 20.4167,71.45839 0,40.20836 -20.4167,71.45838 -20.4166,31.25003 -57.5,49.16671 -37.0834,17.70834 -86.8751,18.33334 z m 106.0417,-20.83331 q 41.875,-0.41667 69.1667,-15.00001 27.2917,-14.79168 40.8334,-41.25003 13.5417,-26.66669 13.5417,-62.08338 0,-35.20836 -13.5417,-61.87505 -13.5417,-26.66669 -40.8334,-41.45837 -27.0833,-14.79167 -68.9584,-14.79167 h -14.5833 v 236.45851 z"
         style="font-family:'MOG rhythm';-inkscape-font-specification:'MOG rhythm';text-align:center;text-anchor:middle"
         id="path58346" />
      <path
         d="m 2718.6466,1006.5931 h -121.2501 v -11.87497 l 29.375,-7.91667 V 748.46794 l -29.375,-7.91667 v -11.87501 h 121.2501 v 11.87501 l -29.375,7.91667 v 238.33352 l 29.375,7.91667 z"
         style="font-family:'MOG rhythm';-inkscape-font-specification:'MOG rhythm';text-align:center;text-anchor:middle"
         id="path58348" />
      <path
         d="m 2953.23,925.34308 -45.4167,-105.41675 -45.6251,105.41675 z m 90,61.45838 30.2084,7.91667 v 11.87497 h -115.4168 v -11.87497 l 22.7084,-6.04167 -18.5417,-42.9167 h -108.7501 l -18.5416,42.9167 22.7083,6.04167 v 11.87497 h -85.6251 v -11.87497 l 30.0001,-7.91667 113.5417,-263.1252 h 10.4167 z"
         style="font-family:'MOG rhythm';-inkscape-font-specification:'MOG rhythm';text-align:center;text-anchor:middle"
         id="path58350" />
      <path
         d="m 3368.8552,1006.5931 h -32.7083 L 3179.8967,794.09298 v 192.70848 l 29.3751,7.91667 v 11.87497 H 3118.23 v -11.87497 l 29.375,-7.91667 V 748.46794 l -29.375,-7.91667 v -11.87501 h 80.8334 L 3336.5635,915.5514 V 748.46794 l -29.375,-7.91667 v -11.87501 h 91.0417 v 11.87501 l -29.375,7.91667 z"
         style="font-family:'MOG rhythm';-inkscape-font-specification:'MOG rhythm';text-align:center;text-anchor:middle"
         id="path58352" />
      <path
         d="m 735.52007,1432.1571 v -11.875 l 29.37502,-7.9167 v -238.3335 l -29.37502,-7.9167 v -11.875 H 862.6035 q 49.7917,0 86.87506,18.125 37.2917,17.9167 57.70834,49.1667 20.4167,31.25 20.4167,71.4584 0,40.2084 -20.4167,71.4584 -20.41664,31.25 -57.5,49.1667 -37.08336,17.7083 -86.87507,18.3333 z m 106.04174,-20.8334 q 41.87504,-0.4166 69.16672,-15 27.29169,-14.7917 40.83337,-41.25 13.54168,-26.6667 13.54168,-62.0834 0,-35.2084 -13.54168,-61.875 -13.54168,-26.6667 -40.83337,-41.4584 -27.08335,-14.7917 -68.95838,-14.7917 H 827.1868 v 236.4585 z"
         style="font-family:'MOG rhythm';-inkscape-font-specification:'MOG rhythm';text-align:center;text-anchor:middle"
         id="path58354" />
      <path
         d="m 1219.8954,1436.7404 q -59.7917,0 -91.2501,-29.1667 -31.25,-29.375 -31.4583,-85.8334 v -148.1251 l -29.375,-7.9167 v -11.875 h 121.0417 v 11.875 l -29.375,7.9167 v 156.0418 q 0,44.1667 16.0417,62.7084 16.25,18.3333 50.2083,18.3333 34.5834,0 51.8751,-26.6667 14.5833,-22.5 14.5833,-59.5833 v -150.8335 l -29.375,-7.9167 v -11.875 h 91.0417 v 11.875 l -29.375,7.9167 v 153.3335 q 0,45.2083 -22.2917,75 -26.25,34.7917 -82.2917,34.7917 z"
         style="font-family:'MOG rhythm';-inkscape-font-specification:'MOG rhythm';text-align:center;text-anchor:middle"
         id="path58356" />
      <path
         d="m 1656.1457,1432.1571 h -32.7083 l -156.2501,-212.5002 v 192.7085 l 29.375,7.9167 v 11.875 h -91.0417 v -11.875 l 29.375,-7.9167 v -238.3335 l -29.375,-7.9167 v -11.875 h 80.8333 l 137.5002,186.8751 v -167.0834 l -29.3751,-7.9167 v -11.875 h 91.0418 v 11.875 l -29.3751,7.9167 z"
         style="font-family:'MOG rhythm';-inkscape-font-specification:'MOG rhythm';text-align:center;text-anchor:middle"
         id="path58358" />
      <path
         d="m 1874.0626,1436.7404 q -72.2918,0 -109.1668,-41.6667 -34.5833,-38.75 -34.5833,-102.2917 0,-63.5417 33.75,-102.2918 36.25,-41.6667 108.5417,-41.6667 23.125,0 46.8751,8.75 23.75,8.75 34.5833,19.5834 l 7.7084,-28.3334 h 16.6666 v 91.2501 h -16.6666 q -10,-37.0834 -34.7917,-54.7917 -20,-13.9584 -50.2084,-13.9584 -84.1667,0 -84.1667,121.4585 0,40.625 9.1666,67.5 9.1667,26.875 28.7501,40 19.7916,12.9167 52.5,12.9167 22.5,0 39.375,-7.9166 v -95.8335 l -29.375,-7.9166 v -11.875 h 117.9168 v 11.875 l -29.1667,7.9166 v 97.5001 q -17.5,13.75 -39.375,20.2084 -33.1251,9.5833 -68.3334,9.5833 z"
         style="font-family:'MOG rhythm';-inkscape-font-specification:'MOG rhythm';text-align:center;text-anchor:middle"
         id="path58360" />
      <path
         d="m 2264.2711,1432.1571 h -211.6668 v -11.875 l 29.375,-7.9167 v -238.3335 l -29.375,-7.9167 v -11.875 h 211.6668 v 74.5834 h -16.875 l -11.6667,-51.2501 h -91.4584 v 105.4168 h 64.5834 l 8.9584,-25.625 h 16.4583 v 71.6667 h -16.4583 l -8.9584,-25.4167 h -64.5834 v 105.4168 h 91.4584 l 11.6667,-51.2501 h 16.875 z"
         style="font-family:'MOG rhythm';-inkscape-font-specification:'MOG rhythm';text-align:center;text-anchor:middle"
         id="path58362" />
      <path
         d="m 2453.0213,1417.3654 q 17.0833,0 29.375,-7.5 12.2917,-7.5 20.8334,-20.625 8.5416,-13.125 13.3333,-29.5834 5,-16.4583 7.0834,-33.9583 2.0833,-17.5001 2.0833,-33.1251 0,-15.625 -2.0833,-32.9167 -1.875,-17.5 -6.8751,-33.9583 -5,-16.4584 -13.5416,-29.375 -8.5417,-13.125 -20.8334,-20.6251 -12.2917,-7.5 -29.375,-7.5 -17.0833,0 -29.375,7.5 -12.2917,7.5001 -20.8334,20.6251 -8.3333,12.9166 -13.3333,29.375 -5,16.4583 -7.0834,33.9583 -2.0833,17.2917 -2.0833,32.9167 0,15.625 2.0833,33.1251 2.0834,17.5 7.0834,33.9583 5,16.4584 13.5417,29.5834 8.5416,13.125 20.625,20.625 12.2917,7.5 29.375,7.5 z m 0,19.375 q -33.75,0 -59.375,-11.25 -25.6251,-11.25 -42.5001,-31.0417 -16.6667,-19.7917 -25,-45.8334 -8.3333,-26.0416 -8.3333,-56.0417 0,-30 8.125,-56.0417 8.3333,-26.0417 25.2083,-45.625 16.875,-19.7917 42.2917,-30.8334 25.625,-11.25 59.5834,-11.25 33.9584,0 59.5834,11.25 25.625,11.0417 42.2917,30.8334 16.875,19.5833 25.2083,45.625 8.3334,26.0417 8.3334,56.0417 0,30.0001 -8.3334,56.0417 -8.3333,26.0417 -25.2083,45.8334 -16.875,19.7917 -42.5001,31.0417 -25.4166,11.25 -59.375,11.25 z"
         style="font-family:'MOG rhythm';-inkscape-font-specification:'MOG rhythm';text-align:center;text-anchor:middle"
         id="path58364" />
      <path
         d="m 2885.3132,1432.1571 h -32.7083 l -156.2502,-212.5002 v 192.7085 l 29.3751,7.9167 v 11.875 h -91.0418 v -11.875 l 29.3751,-7.9167 v -238.3335 l -29.3751,-7.9167 v -11.875 h 80.8334 l 137.5001,186.8751 v -167.0834 l -29.375,-7.9167 v -11.875 h 91.0417 v 11.875 l -29.375,7.9167 z"
         style="font-family:'MOG rhythm';-inkscape-font-specification:'MOG rhythm';text-align:center;text-anchor:middle"
         id="path58366" />
      <path
         d="m 3060.105,1436.7404 q -10.625,0 -25,-3.125 -14.1667,-2.9167 -28.3333,-10.4167 -13.9584,-7.7083 -18.3334,-13.3333 l -7.2917,26.875 H 2964.48 v -91.2501 h 16.6666 q 7.7084,30.4167 26.6667,49.5834 21.875,22.2917 51.6667,22.2917 20.8334,0 31.0417,-8.3333 10.4167,-8.3334 10.4167,-24.1667 0,-31.8751 -67.0834,-70.4167 -69.7917,-37.7084 -69.7917,-94.7918 0.2083,-26.25 13.75,-41.875 13.75,-15.625 35.2084,-22.2917 21.6666,-6.6667 44.1667,-6.6667 10.625,0 24.1666,3.125 13.5417,2.9167 26.8751,10.625 13.3333,7.5 17.5,13.125 l 7.5,-26.875 h 16.6667 v 91.2501 h -16.8751 q -7.7083,-31.0417 -25.2083,-49.5834 -20.625,-22.2917 -50,-22.2917 -16.8751,0 -26.2501,9.7917 -9.375,9.5834 -9.375,27.2917 0,29.5834 61.6667,63.5417 75.6251,39.1667 75.6251,94.5834 0,36.875 -33.3334,56.8751 -27.5,16.4583 -66.0417,16.4583 z"
         style="font-family:'MOG rhythm';-inkscape-font-specification:'MOG rhythm';text-align:center;text-anchor:middle"
         id="path58368" />
    </g>
    <path
       style="fill:#000000"
       id="path51434"
       d="" />
    <path
       style="fill:#000000;stroke-width:2.11801"
       d=""
       id="path51748" />
    <path
       style="fill:#000000;stroke-width:2.23014"
       d="m 189.4563,1198.4428 c -29.02629,-9.854 -75.02318,-19.4117 -128.21605,-26.642 -20.53921,-2.792 -36.59607,-5.775 -35.68211,-6.6291 0.91394,-0.8541 14.20621,-3.2087 29.53823,-5.2325 65.16075,-8.6003 107.36265,-17.4353 142.242,-29.7783 l 17.71966,-6.2704 14.24223,5.3413 c 24.67872,9.2555 72.1585,20.3634 97.1873,22.7367 13.77531,1.3063 90.2677,2.2864 178.53773,2.2874 h 154.43655 v 11.1506 11.1506 H 506.14037 c -88.45835,10e-4 -163.69958,0.979 -177.85292,2.3118 -29.00022,2.7309 -55.05934,8.5419 -88.97967,19.842 l -24.75706,8.2474 z"
       id="path52242" />
    <path
       style="fill:#000000;stroke-width:2.23014"
       d="m 3695.9586,1198.4428 c 29.0263,-9.854 75.0232,-19.4117 128.2161,-26.642 20.5392,-2.792 36.596,-5.775 35.6821,-6.6291 -0.914,-0.8541 -14.2062,-3.2087 -29.5383,-5.2325 -65.1607,-8.6003 -107.3626,-17.4353 -142.242,-29.7783 l -17.7196,-6.2704 -14.2423,5.3413 c -24.6787,9.2555 -72.1585,20.3634 -97.1873,22.7367 -13.7753,1.3063 -90.2677,2.2864 -178.5377,2.2874 H 3225.953 v 11.1506 11.1506 h 153.3215 c 88.4584,10e-4 163.6996,0.979 177.853,2.3118 29.0002,2.7309 55.0593,8.5419 88.9796,19.842 l 24.7571,8.2474 z"
       id="path52242-2" />
  </g>
</svg>
