<svg width="667.7" height="665.5" viewBox="0 0 20 20" data-name="Layer 1" xml:space="preserve" xmlns="http://www.w3.org/2000/svg"><path d="M20 9a4 4 0 0 0-2-3.5 3 3 0 0 0 0-.5 3 3 0 0 0-3-3H15A3 3 0 0 0 10 .8 3 3 0 0 0 5.2 2H5a3 3 0 0 0-3 3 3 3 0 0 0 0 .5 4 4 0 0 0-.5 6.6A4 4 0 0 0 5 18h.2a3 3 0 0 0 4.8 1.2A3 3 0 0 0 15 18h.1a4 4 0 0 0 3.5-6A4 4 0 0 0 20 9zM9 6.5a4.7 4.7 0 0 0-.6-.3 1 1 0 0 0-.7 2A2 2 0 0 1 9 10v1.5a4.7 4.7 0 0 0-.6-.3 1 1 0 0 0-.7 2A2 2 0 0 1 9 15v2a1 1 0 0 1-1 1 1 1 0 0 1-.9-.6 4 4 0 0 0 .5-.3 1 1 0 1 0-1.3-1.6A2 2 0 0 1 5 16a2 2 0 0 1-2-2 2 2 0 0 1 .4-1 3.8 3.8 0 0 0 .6 0 1 1 0 0 0 0-2 1.8 1.8 0 0 1-.7-.1A2 2 0 0 1 3 7.2a3.1 3.1 0 0 0 .5.4 1 1 0 1 0 1-1.8.9.9 0 0 1-.3-.3A1 1 0 0 1 4 5a1 1 0 0 1 1-1 .8.8 0 0 1 .2 0 3.9 3.9 0 0 0 .2.5 1 1 0 0 0 1.4.3 1 1 0 0 0 .4-1.3A1 1 0 0 1 7 3a1 1 0 0 1 2 0zm7.7 4.4a1.8 1.8 0 0 1-.7 0 1 1 0 0 0 0 2 3.8 3.8 0 0 0 .7 0 2 2 0 0 1 .3 1 2 2 0 0 1-2 2 2 2 0 0 1-1.3-.4 1 1 0 0 0-1.2 1.6 4 4 0 0 0 .4.3 1 1 0 0 1-.9.6 1 1 0 0 1-1-1v-2a2 2 0 0 1 1.4-1.9 1 1 0 0 0-.7-1.9 4.7 4.7 0 0 0-.7.3V10A2 2 0 0 1 12.4 8a1 1 0 0 0-.7-1.9 4.7 4.7 0 0 0-.7.3V3a1 1 0 0 1 2 0 1 1 0 0 1-.1.5 1 1 0 0 0 .4 1.4 1 1 0 0 0 1.3-.4 3.9 3.9 0 0 0 .2-.5.8.8 0 0 1 .2 0 1 1 0 0 1 1 1 1 1 0 0 1-.1.5.9.9 0 0 1-.4.3 1 1 0 0 0 1 1.8 2.7 2.7 0 0 0 .5-.4 2 2 0 0 1-.2 3.7z" style="fill:#8ca4f1;fill-opacity:1"/></svg>