<svg height="10" width="10" version="1.1" id="_x32_" viewBox="0 0 512 512" xml:space="preserve" xmlns="http://www.w3.org/2000/svg"><style type="text/css" id="style1">.st0{fill:#000}</style><g id="g2" style="fill:#8ca4f1;fill-opacity:1"><path class="st0" d="M115 431h282s19-3 19-22c0-29-26-39-38-55-53-66-49-226-49-226H183s4 160-49 226c-12 16-38 26-38 55 0 19 19 22 19 22z" id="path1" style="fill:#8ca4f1;fill-opacity:1"/><path class="st0" id="polygon1" style="fill:#8ca4f1;fill-opacity:1" d="m329 108 46-28V0h-55v43h-38V0h-52v43h-38V0h-55v80l46 28z"/><path class="st0" id="polygon2" style="fill:#8ca4f1;fill-opacity:1" d="m115 451-16 27v34h314v-34l-16-27z"/></g></svg>
